<svg width="100" height="100" viewBox="0 0 100 100" fill="none" xmlns="http://www.w3.org/2000/svg">
<g clip-path="url(#clip0_298_4)">
<path d="M80.3375 0.912516C79.7515 0.326669 78.9568 -0.00244141 78.1281 -0.00244141C77.2995 -0.00244141 76.5048 0.326669 75.9188 0.912516L65.625 11.2063L88.7938 34.375L99.0875 24.0875C99.3785 23.7972 99.6094 23.4524 99.767 23.0727C99.9245 22.6931 100.006 22.2861 100.006 21.875C100.006 21.464 99.9245 21.057 99.767 20.6773C99.6094 20.2976 99.3785 19.9528 99.0875 19.6625L80.3375 0.912516V0.912516ZM84.375 38.7938L61.2063 15.625L20.5813 56.25H21.875C22.7038 56.25 23.4987 56.5793 24.0847 57.1653C24.6708 57.7514 25 58.5462 25 59.375V62.5H28.125C28.9538 62.5 29.7487 62.8293 30.3347 63.4153C30.9208 64.0014 31.25 64.7962 31.25 65.625V68.75H34.375C35.2038 68.75 35.9987 69.0793 36.5847 69.6653C37.1708 70.2514 37.5 71.0462 37.5 71.875V75H40.625C41.4538 75 42.2487 75.3293 42.8347 75.9153C43.4208 76.5014 43.75 77.2962 43.75 78.125V79.4188L84.375 38.7938V38.7938ZM37.7 85.4688C37.5685 85.1191 37.5008 84.7486 37.5 84.375V81.25H34.375C33.5462 81.25 32.7514 80.9208 32.1653 80.3347C31.5793 79.7487 31.25 78.9538 31.25 78.125V75H28.125C27.2962 75 26.5014 74.6708 25.9153 74.0847C25.3293 73.4987 25 72.7038 25 71.875V68.75H21.875C21.0462 68.75 20.2514 68.4208 19.6653 67.8347C19.0793 67.2487 18.75 66.4538 18.75 65.625V62.5H15.625C15.2514 62.4994 14.8809 62.4317 14.5313 62.3L13.4125 63.4125C13.1147 63.7124 12.8808 64.0696 12.725 64.4625L0.225009 95.7125C-0.00230801 96.2804 -0.0579549 96.9025 0.0649667 97.5018C0.187888 98.101 0.483973 98.651 0.916513 99.0835C1.34905 99.516 1.89903 99.8121 2.49826 99.9351C3.09748 100.058 3.71961 100.002 4.28751 99.775L35.5375 87.275C35.9304 87.1192 36.2876 86.8853 36.5875 86.5875L37.7 85.475V85.4688Z" fill="#3B8952"/>
</g>
<defs>
<clipPath id="clip0_298_4">
<rect width="100" height="100" fill="white"/>
</clipPath>
</defs>
</svg>
